<svg xmlns:xlink="http://www.w3.org/1999/xlink" xmlns="http://www.w3.org/2000/svg" width="512" height="512" viewBox="0 0 48 48" fill="none">
	<path fill-rule="evenodd" clip-rule="evenodd" d="M9.3335 26.667H12.2002C12.6319 28.7937 13.7385 30.6753 15.2867 32.0786L16.1901 32.982L13.8384 35.3337L16.6668 38.1621L20.162 34.667H28.0001L31.3335 38.0004L34.1619 35.172L32.1619 33.1719L38.6668 26.667V22.667H35.8001C35.4675 21.0282 34.734 19.5349 33.7066 18.2939L37.3335 14.667H22.0002C16.7013 14.667 12.3651 18.7883 12.022 24.0003H9.3335V26.667ZM32.0002 24.0003C32.7365 24.0003 33.3335 23.4034 33.3335 22.667C33.3335 21.9306 32.7365 21.3337 32.0002 21.3337C31.2638 21.3337 30.6668 21.9306 30.6668 22.667C30.6668 23.4034 31.2638 24.0003 32.0002 24.0003Z" fill="#ffffff" />
	<path fill-rule="evenodd" clip-rule="evenodd" d="M24.0002 22.667C27.6821 22.667 30.6668 19.6822 30.6668 16.0003C30.6668 12.3184 27.6821 9.33366 24.0002 9.33366C20.3183 9.33366 17.3335 12.3184 17.3335 16.0003C17.3335 19.6822 20.3183 22.667 24.0002 22.667ZM24.0002 18.667L21.3335 16.0003L24.0002 13.3337L26.6668 16.0003L24.0002 18.667Z" fill="url(#paint0_linear_1312_56743)" />
	<path d="M24.0002 18.667L21.3335 16.0003L24.0002 13.3337L26.6668 16.0003L24.0002 18.667Z" fill="#ffffff" />
	<defs>
		<linearGradient id="paint0_linear_1312_56743" x1="24.0002" y1="22.667" x2="24.0002" y2="9.33366" gradientUnits="userSpaceOnUse">
			<stop stop-color="#F0B90B" />
			<stop offset="1" stop-color="#F8D33A" />
		</linearGradient>
	</defs>
</svg>
