<svg xmlns:xlink="http://www.w3.org/1999/xlink" class="deposit-icon" xmlns="http://www.w3.org/2000/svg" width="512" height="512">
	<!--
	<path fill-rule="evenodd" clip-rule="evenodd" d="M13.5 3H10.5V9.94961L10.197 9.94695L6.03809 9.98779L12.0129 15.9626L17.9878 9.98779L13.8115 9.9787L13.5 9.97597V3ZM3.5 14H6.5V18H17.5V14H20.5V18V21H3.5V18V14Z" fill="#1E2329">
	</path>
	-->
	<!--
	<path fill-rule="evenodd" clip-rule="evenodd" d="M13.5 3H10.5V9.94961L10.197 9.94695L6.03809 9.98779L12.0129 15.9626L17.9878 9.98779L13.8115 9.9787L13.5 9.97597V3Z" fill="#1E2329">
	</path>
	-->
	<path fill-rule="evenodd" clip-rule="evenodd" d="M10.197 9.94695L6.03809 9.98779L12.0129 15.9626L17.9878 9.98779L13.8115 9.9787L10.197 9.94695Z" fill="#F0B90B">
	</path>
	<path fill-rule="evenodd" clip-rule="evenodd" d="M13.5 3H10.5V9.94961L13.5 9.97597V3Z" fill="#ffffff">
	</path>
	<path fill-rule="evenodd" clip-rule="evenodd" d="M3.5 14H6.5V18H17.5V14H20.5V18V21H3.5V18V14Z" fill="#ffffff">
	</path>
</svg>
